<svg width="327.9" height="104.6"
  xmlns="http://www.w3.org/2000/svg"
  xmlns:svg="http://www.w3.org/2000/svg">
  <style type="text/css">.st0{fill:#FFFFFF;}</style>
  <g>
    <title>Layer 1</title>
    <g id="svg_1">
      <g id="svg_2">
        <path class="st0" d="m187.8,28.4l13.4,37l13.4,-37l11.4,0l-19.5,49l-11.4,0l-19.3,-49c0,0 12,0 12,0z" id="svg_3" fill="black"/>
      </g>
    </g>
    <g id="svg_7">
      <path class="st0" d="m47.1,79.6l7.4,13.8c5.8,-3.6 11.5,-7.4 17.1,-11.4l-23.2,-4.3c-1.4,-0.2 -2,0.6 -1.3,1.9z" id="svg_8"/>
      <path class="st0" d="m38.9,76c-0.3,-0.1 -1.4,0.6 -2.6,1.4l-16.1,12c-1.6,12.2 8.5,19.1 22.1,11.1c2.6,-1.4 5.2,-2.9 7.7,-4.4l-9.4,-17.7c-0.7,-1.3 -1.5,-2.3 -1.7,-2.4z" id="svg_9"/>
      <path class="st0" d="m84.9,41.4l-9.5,7c-1.1,0.8 -1.3,2.4 -0.2,3.4l15.9,15.9c10,-7.4 11.3,-17.5 4.8,-25.9l-6.4,-1.4c-1.4,-0.3 -3.5,0.1 -4.6,1z" id="svg_10"/>
      <path class="st0" d="m71,54.9c-1,-1 -2.8,-1.1 -3.9,-0.3l-21,15.6c-1.1,0.8 -0.9,1.8 0.5,2l30.9,5.7c3.2,-2.3 6.3,-4.7 9.4,-7.1l-15.9,-15.9z" id="svg_11"/>
      <path class="st0" d="m77.7,37.8l-18.5,-4c-1.4,-0.3 -1.7,0.3 -0.7,1.3l9.3,9.3c1,1 2.8,1.1 3.9,0.3l6.4,-4.8c1.2,-0.8 1,-1.8 -0.4,-2.1z" id="svg_12"/>
      <path class="st0" d="m41.3,25.2l-19.5,-19.5c-2.4,4 -2.5,10 0.6,16.8l18.1,3.9c1.5,0.4 1.8,-0.2 0.8,-1.2z" id="svg_13"/>
      <path class="st0" d="m35.1,68l-8.5,-16c0,5.4 -0.4,10.9 -1.1,16.2l8.3,1.5c1.3,0.4 1.9,-0.5 1.3,-1.7z" id="svg_14"/>
      <path class="st0" d="m55,29.6l26.2,5.7c1.4,0.3 3.5,-0.1 4.6,-1l0.9,-0.7c-14.3,-10.9 -28.6,-20.8 -44.4,-29.5c-6.8,-4 -12.8,-4.2 -16.8,-2l25.1,25.1c1,1 3,2.1 4.4,2.4z" id="svg_15"/>
      <path class="st0" d="m28.9,74.2l-4.3,-0.8c-0.5,2.6 -1.1,5.2 -1.8,7.8l6.6,-4.9c1.1,-1 0.9,-1.9 -0.5,-2.1z" id="svg_16"/>
      <path class="st0" d="m39.5,65.4c0.7,1.3 2.1,1.6 3.3,0.7l20.5,-15.3c1.1,-0.8 1.3,-2.4 0.2,-3.4l-14.3,-14.3c-1,-1 -3,-2.1 -4.4,-2.4l-21.4,-4.6c1.1,4.4 1.9,9 2.4,13.6l13.7,25.7z" id="svg_17"/>
    </g>
    <path class="st0" d="m145,28.4l13.4,37l13.4,-37l11.4,0l-19.5,49l-11.4,0l-19.3,-49c0,0 12,0 12,0z" fill="black" id="svg_18" transform="rotate(-180 158.10000610351562,52.89999389648438) "/>
    <path id="svg_6" class="st0" d="m241,28.4l23.8,31.5l0,-31.5l10.5,0l0,49l-10.1,0l-23.7,-31.4l0,31.4l-10.6,0l0,-49c0,0 10.1,0 10.1,0z" fill="black"/>
    <path id="svg_4" fill="black" class="st0" d="m293.65,28.4l0,49l-11.1,0l0,-49c0,0 11.1,0 11.1,0z"/>
  </g>
</svg>
